<?xml version="1.0" encoding="UTF-8"?>
<svg id="Laag_1" data-name="Laag 1" xmlns="http://www.w3.org/2000/svg" version="1.1" xmlns:xlink="http://www.w3.org/1999/xlink" viewBox="0 0 24 24">
  <defs>
    <style>
      .cls-1 {
        fill: url(#Naamloos_verloop_2);
        stroke-width: 0px;
      }
    </style>
    <linearGradient id="Naamloos_verloop_2" data-name="Naamloos verloop 2" x1="11.9" y1="6.1" x2="11.9" y2="25.9" gradientUnits="userSpaceOnUse">
      <stop offset="0" stop-color="#fff"/>
      <stop offset=".1" stop-color="#eee"/>
      <stop offset=".3" stop-color="#c3c3c3"/>
      <stop offset=".6" stop-color="#7e7e7d"/>
      <stop offset="1" stop-color="#20201e"/>
      <stop offset="1" stop-color="#1d1d1b"/>
    </linearGradient>
  </defs>
  <path class="cls-1" d="M19.4,6.6s2.4,4.4,2.4,9.8c0,0-1.4,2.4-5.2,2.6,0,0-.6-.7-1.1-1.4,2.2-.6,3.1-2,3.1-2-.7.5-1.4.8-2,1-.8.3-1.7.6-2.5.7-1.6.3-3.1.2-4.4,0-1-.2-1.8-.4-2.5-.7-.4-.1-.8-.3-1.2-.6,0,0-.1,0-.2,0,0,0,0,0,0,0-.3-.2-.5-.3-.5-.3,0,0,.8,1.3,3,2-.5.6-1.1,1.4-1.1,1.4-3.7-.1-5.2-2.6-5.2-2.6,0-5.4,2.4-9.8,2.4-9.8,2.4-1.8,4.8-1.8,4.8-1.8l.2.2c-3.1.9-4.4,2.2-4.4,2.2,0,0,.4-.2,1-.5,1.8-.8,3.3-1,3.8-1.1,0,0,.2,0,.3,0,1-.1,2.2-.2,3.4,0,1.6.2,3.3.7,5.1,1.6,0,0-1.3-1.3-4.2-2.1l.2-.3s2.3,0,4.8,1.8ZM15,14.9c1,0,1.7-.8,1.7-1.9s-.8-1.9-1.7-1.9-1.7.8-1.7,1.9.8,1.9,1.7,1.9ZM8.7,14.9c1,0,1.7-.8,1.7-1.9s-.8-1.9-1.7-1.9-1.7.8-1.7,1.9.8,1.9,1.7,1.9Z"/>
</svg>