<?xml version="1.0" standalone="no"?>
<!DOCTYPE svg PUBLIC "-//W3C//DTD SVG 20010904//EN"
 "http://www.w3.org/TR/2001/REC-SVG-20010904/DTD/svg10.dtd">
<svg version="1.0" xmlns="http://www.w3.org/2000/svg"
 width="256.000000pt" height="256.000000pt" viewBox="0 0 256.000000 256.000000"
 preserveAspectRatio="xMidYMid meet">

<g transform="translate(0.000000,256.000000) scale(0.100000,-0.100000)"
fill="#000000" stroke="none">
<path d="M1465 2530 c34 -13 45 -34 46 -86 1 -27 7 -60 14 -74 7 -14 11 -48 9
-77 -2 -34 0 -53 8 -53 7 0 8 -14 4 -40 -8 -48 5 -77 36 -83 16 -3 14 -4 -6
-3 -23 1 -32 -6 -48 -34 -11 -20 -17 -46 -14 -61 l5 -26 -57 9 c-31 5 -139 8
-239 6 -99 -2 -179 0 -177 3 2 3 -18 27 -43 53 l-46 48 -59 -12 c-122 -24
-218 -61 -338 -132 -99 -58 -106 -67 -181 -255 -103 -256 -150 -443 -184 -738
l-15 -129 43 -45 c23 -24 36 -41 30 -37 -24 13 -13 -11 28 -67 23 -31 73 -78
117 -109 76 -54 187 -118 204 -118 5 0 28 -9 51 -19 23 -10 62 -25 87 -32 25
-7 49 -16 55 -21 5 -4 17 -8 27 -8 10 0 41 -11 68 -25 27 -14 56 -22 65 -19
13 5 14 2 6 -18 -5 -14 -9 -31 -9 -39 2 -34 -3 -48 -19 -54 -10 -3 -29 -21
-43 -40 -14 -19 -30 -35 -37 -35 -7 0 -21 -10 -32 -21 -15 -17 -17 -24 -8 -34
7 -7 15 -11 20 -8 4 2 14 -3 22 -11 9 -8 22 -13 30 -10 8 4 15 2 15 -4 0 -14
173 -52 283 -62 328 -32 692 90 951 318 191 169 328 404 393 676 22 94 26 135
27 266 1 220 -38 387 -135 582 -122 245 -303 429 -546 555 -129 66 -331 131
-366 117 -8 -3 -18 -1 -22 5 -3 6 -14 11 -23 10 -14 0 -13 -2 3 -9z m-419
-1126 c45 -22 75 -74 82 -146 3 -37 -2 -60 -28 -117 -28 -60 -39 -74 -75 -91
-136 -66 -265 26 -265 188 0 88 28 142 95 181 29 17 145 8 191 -15z m618 12
c39 -16 70 -62 87 -129 24 -96 -31 -215 -114 -246 -65 -25 -148 -6 -191 43
-23 26 -52 91 -61 133 -9 46 18 133 52 165 48 45 160 62 227 34z"/>
</g>
</svg>
