<?xml version="1.0" encoding="UTF-8"?>
<svg id="Laag_1" data-name="Laag 1" xmlns="http://www.w3.org/2000/svg" version="1.1" xmlns:xlink="http://www.w3.org/1999/xlink" viewBox="0 0 24 24">
  <defs>
    <style>
      .cls-1 {
        fill: url(#Naamloos_verloop_3);
        stroke-width: 0px;
      }
    </style>
    <linearGradient id="Naamloos_verloop_3" data-name="Naamloos verloop 3" x1="11.9" y1="19.9" x2="11.9" y2=".1" gradientTransform="translate(0 26) scale(1 -1)" gradientUnits="userSpaceOnUse">
      <stop offset="0" stop-color="#fff"/>
      <stop offset=".7" stop-color="#2e3e92"/>
      <stop offset="1" stop-color="#20201e"/>
    </linearGradient>
  </defs>
  <path class="cls-1" d="M19.4,6.6s2.4,4.4,2.4,9.8c0,0-1.4,2.4-5.2,2.6,0,0-.6-.7-1.1-1.4,2.2-.6,3.1-2,3.1-2-.7.5-1.4.8-2,1-.8.3-1.7.6-2.5.7-1.6.3-3.1.2-4.4,0-1-.2-1.8-.4-2.5-.7-.4-.1-.8-.3-1.2-.6h-.2c-.3-.2-.5-.3-.5-.3,0,0,.8,1.3,3,2-.5.6-1.1,1.4-1.1,1.4-3.7-.1-5.2-2.6-5.2-2.6,0-5.4,2.4-9.8,2.4-9.8,2.4-1.8,4.8-1.8,4.8-1.8l.2.2c-3.1.9-4.4,2.2-4.4,2.2,0,0,.4-.2,1-.5,1.8-.8,3.3-1,3.8-1.1h.3c1,0,2.2-.2,3.4,0,1.6.2,3.3.7,5.1,1.6,0,0-1.3-1.3-4.2-2.1l.2-.3s2.3,0,4.8,1.8h0ZM15,14.9c1,0,1.7-.8,1.7-1.9s-.8-1.9-1.7-1.9-1.7.8-1.7,1.9.8,1.9,1.7,1.9ZM8.7,14.9c1,0,1.7-.8,1.7-1.9s-.8-1.9-1.7-1.9-1.7.8-1.7,1.9.8,1.9,1.7,1.9Z"/>
</svg>